<svg width="157" height="78" viewBox="0 0 157 78" fill="none" xmlns="http://www.w3.org/2000/svg">
<path d="M16.638 54.5892V43.5683H6.36488V54.5892H0V28.2284H6.36488V38.2068H16.638V28.2284H23.0029V54.5892H16.638Z" fill="#701892"/>
<path d="M47.755 45.2438C47.755 46.7573 47.4814 48.1293 46.9361 49.358C46.3908 50.5867 45.6463 51.6292 44.7028 52.4855C43.7592 53.3419 42.6686 54.0046 41.4273 54.4775C40.186 54.9485 38.859 55.1849 37.4446 55.1849C36.0562 55.1849 34.733 54.9485 33.4805 54.4775C32.228 54.0046 31.1356 53.3419 30.205 52.4855C29.2745 51.6292 28.5375 50.5867 27.9903 49.358C27.4451 48.1293 27.1718 46.7573 27.1718 45.2438C27.1718 43.7284 27.4451 42.3638 27.9903 41.1481C28.5375 39.9306 29.2745 38.9012 30.205 38.0578C31.1356 37.2126 32.228 36.5685 33.4805 36.1217C34.733 35.6749 36.0562 35.4515 37.4446 35.4515C38.859 35.4515 40.186 35.6749 41.4273 36.1217C42.6686 36.5685 43.7592 37.2126 44.7028 38.0578C45.6463 38.9012 46.3908 39.9306 46.9361 41.1481C47.4814 42.3638 47.755 43.7284 47.755 45.2438ZM41.874 45.2438C41.874 44.648 41.7753 44.0635 41.5762 43.4938C41.3789 42.9223 41.0923 42.4196 40.7201 41.9859C40.3479 41.5503 39.8901 41.1966 39.3429 40.9248C38.7976 40.6511 38.1648 40.5152 37.4446 40.5152C36.7262 40.5152 36.0916 40.6511 35.5463 40.9248C35.001 41.1966 34.5469 41.5503 34.1877 41.9859C33.8285 42.4196 33.555 42.9223 33.3689 43.4938C33.1828 44.0635 33.0897 44.648 33.0897 45.2438C33.0897 45.8395 33.1828 46.4222 33.3689 46.9937C33.555 47.5634 33.8341 48.079 34.2063 48.5389C34.5786 48.9968 35.0382 49.3636 35.5835 49.6372C36.1288 49.909 36.7635 50.0468 37.4818 50.0468C38.2021 50.0468 38.8348 49.909 39.3801 49.6372C39.9273 49.3636 40.3851 48.9968 40.7573 48.5389C41.1295 48.079 41.4087 47.5634 41.5948 46.9937C41.7809 46.4222 41.874 45.8395 41.874 45.2438Z" fill="#701892"/>
<path d="M62.5317 41.5205C62.0367 41.0476 61.4523 40.6511 60.7823 40.329C60.1123 40.0051 59.4051 39.845 58.6607 39.845C58.0893 39.845 57.5627 39.9567 57.0788 40.1801C56.5949 40.4035 56.353 40.787 56.353 41.3343C56.353 41.8556 56.621 42.2279 57.1532 42.4513C57.6874 42.6747 58.549 42.9223 59.7401 43.196C60.4362 43.3449 61.1359 43.5553 61.8431 43.8289C62.5504 44.1007 63.1906 44.4619 63.76 44.9087C64.3314 45.3555 64.7892 45.9009 65.1372 46.5469C65.4853 47.191 65.6583 47.9618 65.6583 48.8553C65.6583 50.0207 65.4238 51.0074 64.9511 51.8153C64.4803 52.6214 63.8661 53.273 63.1087 53.7701C62.3531 54.2653 61.5026 54.6264 60.559 54.8498C59.6173 55.0732 58.6737 55.1849 57.7302 55.1849C56.2171 55.1849 54.7338 54.9429 53.2822 54.4589C51.8306 53.9748 50.6209 53.26 49.6531 52.318L53.0775 48.7064C53.6228 49.3021 54.2946 49.7973 55.0874 50.1957C55.8821 50.5922 56.7252 50.7914 57.6185 50.7914C58.1154 50.7914 58.6049 50.6723 59.0887 50.4377C59.5726 50.2013 59.8146 49.7862 59.8146 49.1904C59.8146 48.6189 59.5168 48.1963 58.9212 47.9245C58.3257 47.6509 57.3952 47.366 56.1296 47.0682C55.4838 46.9192 54.8399 46.72 54.1941 46.4724C53.5502 46.223 52.9714 45.8879 52.4633 45.4672C51.9553 45.0446 51.5384 44.5233 51.2164 43.9034C50.8944 43.2816 50.7325 42.5369 50.7325 41.6694C50.7325 40.5524 50.9689 39.603 51.4397 38.8211C51.9106 38.0392 52.5191 37.3988 53.2636 36.9036C54.008 36.4066 54.8325 36.0398 55.7388 35.8053C56.6452 35.5688 57.5441 35.4515 58.4374 35.4515C59.8276 35.4515 61.1862 35.6675 62.5131 36.1031C63.8419 36.5369 64.9642 37.1884 65.8817 38.0578L62.5317 41.5205Z" fill="#701892"/>
<path d="M89.8152 45.2437C89.8152 46.5339 89.6179 47.7756 89.2197 48.967C88.8233 50.1585 88.2463 51.2066 87.4889 52.1132C86.7333 53.018 85.8083 53.744 84.7159 54.2913C83.6253 54.8368 82.3839 55.1104 80.9937 55.1104C79.8529 55.1104 78.7735 54.8796 77.7555 54.4216C76.7393 53.9618 75.9446 53.3344 75.3733 52.5414H75.2988V63.5251H69.1945V36.0472H75.0011V38.3185H75.1127C75.6841 37.5738 76.4713 36.9222 77.4763 36.3637C78.4813 35.8052 79.6668 35.526 81.0309 35.526C82.3709 35.526 83.5862 35.7866 84.6786 36.3079C85.7711 36.8291 86.6961 37.5366 87.4517 38.4302C88.2091 39.3237 88.7916 40.3588 89.2011 41.5391C89.6105 42.7175 89.8152 43.9518 89.8152 45.2437ZM83.897 45.2437C83.897 44.648 83.804 44.0635 83.6178 43.4938C83.4317 42.9223 83.16 42.4196 82.799 41.9859C82.4398 41.5503 81.9875 41.1966 81.4404 40.9248C80.8951 40.6511 80.2623 40.5152 79.5421 40.5152C78.8479 40.5152 78.2282 40.6511 77.681 40.9248C77.1357 41.1966 76.6705 41.5577 76.2852 42.0045C75.9018 42.4513 75.604 42.9595 75.3919 43.531C75.1816 44.1007 75.0755 44.6853 75.0755 45.281C75.0755 45.8767 75.1816 46.4594 75.3919 47.0309C75.604 47.6006 75.9018 48.1107 76.2852 48.5575C76.6705 49.0043 77.1357 49.3635 77.681 49.6372C78.2282 49.909 78.8479 50.0468 79.5421 50.0468C80.2623 50.0468 80.8951 49.909 81.4404 49.6372C81.9875 49.3635 82.4398 49.0043 82.799 48.5575C83.16 48.1107 83.4317 47.595 83.6178 47.0123C83.804 46.4277 83.897 45.8395 83.897 45.2437Z" fill="#8DC63F"/>
<path d="M106.416 43.196C106.416 42.2279 106.113 41.3957 105.504 40.7014C104.895 40.0051 103.985 39.6588 102.768 39.6588C102.173 39.6588 101.627 39.7519 101.131 39.9381C100.635 40.1242 100.2 40.3774 99.8278 40.7014C99.4555 41.0234 99.1578 41.4013 98.9344 41.837C98.7111 42.2707 98.5883 42.7231 98.5622 43.196H106.416ZM112.036 45.5416V46.2863C112.036 46.5339 112.023 46.7703 111.999 46.9937H98.5622C98.6125 47.515 98.7669 47.9859 99.0275 48.4085C99.288 48.8293 99.623 49.196 100.032 49.5069C100.442 49.8159 100.902 50.058 101.41 50.233C101.918 50.4061 102.446 50.4936 102.992 50.4936C103.959 50.4936 104.778 50.313 105.448 49.9537C106.118 49.5926 106.663 49.1271 107.086 48.5575L111.329 51.2382C110.462 52.5042 109.314 53.4778 107.886 54.161C106.461 54.8424 104.802 55.1849 102.917 55.1849C101.529 55.1849 100.213 54.9671 98.9717 54.5333C97.7303 54.0977 96.6453 53.4648 95.7148 52.6345C94.7843 51.8023 94.0528 50.7784 93.5187 49.5628C92.9846 48.3453 92.7184 46.9565 92.7184 45.3927C92.7184 43.8773 92.979 42.5072 93.5001 41.2785C94.0212 40.0498 94.7284 39.0073 95.6217 38.1509C96.5151 37.2946 97.5703 36.63 98.7856 36.159C100.003 35.6861 101.317 35.4515 102.731 35.4515C104.097 35.4515 105.35 35.6805 106.49 36.1403C107.633 36.5983 108.612 37.2629 109.431 38.1323C110.25 38.9998 110.89 40.0554 111.348 41.2971C111.808 42.5369 112.036 43.9518 112.036 45.5416Z" fill="#8DC63F"/>
<path d="M122.458 40.6269V47.7011C122.458 48.5686 122.626 49.2202 122.961 49.6558C123.296 50.0896 123.899 50.3074 124.766 50.3074C125.064 50.3074 125.38 50.2813 125.715 50.2329C126.05 50.1827 126.329 50.1082 126.553 50.0095L126.627 54.4774C126.205 54.6264 125.673 54.7567 125.027 54.8684C124.383 54.9801 123.737 55.0359 123.091 55.0359C121.852 55.0359 120.808 54.8796 119.965 54.5705C119.122 54.2596 118.444 53.8129 117.936 53.2302C117.428 52.6456 117.061 51.9512 116.838 51.1451C116.615 50.3372 116.503 49.438 116.503 48.4458V40.6269H113.525V36.0472H116.466V31.1697H122.458V36.0472H126.813V40.6269H122.458Z" fill="#8DC63F"/>
<path d="M140.622 46.5097H139.841C139.171 46.5097 138.495 46.5395 137.812 46.6028C137.131 46.6642 136.522 46.7815 135.988 46.9565C135.456 47.1296 135.015 47.3846 134.667 47.7197C134.321 48.0548 134.146 48.4942 134.146 49.0415C134.146 49.3878 134.228 49.6856 134.388 49.9351C134.55 50.1827 134.754 50.3819 135.002 50.5308C135.251 50.6797 135.536 50.784 135.858 50.8473C136.182 50.9087 136.491 50.9404 136.789 50.9404C138.03 50.9404 138.979 50.5978 139.636 49.9165C140.295 49.2332 140.622 48.308 140.622 47.1426V46.5097ZM129.419 38.5791C130.511 37.5366 131.782 36.7547 133.234 36.2334C134.686 35.7122 136.169 35.4515 137.682 35.4515C139.245 35.4515 140.567 35.6433 141.646 36.0286C142.725 36.4121 143.6 37.0079 144.27 37.8158C144.94 38.6219 145.43 39.6402 145.74 40.8689C146.051 42.0976 146.206 43.5552 146.206 45.2438V54.5892H140.622V52.6158H140.511C140.04 53.3847 139.325 53.9804 138.371 54.403C137.416 54.8238 136.379 55.036 135.263 55.036C134.518 55.036 133.749 54.9354 132.955 54.7381C132.16 54.5389 131.436 54.2169 130.777 53.7701C130.12 53.3233 129.581 52.7276 129.158 51.9829C128.738 51.2382 128.525 50.3186 128.525 49.2277C128.525 47.8873 128.892 46.8075 129.623 45.9884C130.355 45.1693 131.298 44.5363 132.452 44.0895C133.606 43.6428 134.89 43.3449 136.305 43.196C137.719 43.047 139.096 42.9726 140.436 42.9726V42.6747C140.436 41.7551 140.114 41.0793 139.469 40.6455C138.823 40.2099 138.03 39.9939 137.086 39.9939C136.217 39.9939 135.38 40.1801 134.574 40.5524C133.768 40.9248 133.08 41.3715 132.508 41.8928L129.419 38.5791Z" fill="#701892"/>
<path d="M157 26.4412H150.821V54.5892H157V26.4412Z" fill="#701892"/>
<path d="M19.0219 63.5251V65.0267H14.5185V77.1551H12.9019V65.0267H8.39842V63.5251H19.0219Z" fill="#701892"/>
<path d="M26.7393 68.1455V75.0182C26.7393 75.307 26.7586 75.692 26.7778 76.1733C26.7971 76.6546 26.8163 76.9819 26.8163 77.1551H25.3921C25.3921 77.0011 25.3921 76.7508 25.3729 76.4236C25.3536 76.0963 25.3536 75.846 25.3536 75.6728H25.3152C25.1035 76.1541 24.7185 76.5583 24.1797 76.8856C23.6408 77.2129 23.0249 77.3861 22.3129 77.3861C21.1774 77.3861 20.3113 77.0589 19.734 76.3851C19.1759 75.7305 18.8872 74.845 18.8872 73.7091V68.1455H20.3883V73.5551C20.3883 74.3252 20.5615 74.922 20.9079 75.3455C21.2544 75.7883 21.774 76 22.4476 76C23.3906 76 24.0834 75.692 24.5453 75.076C25.0072 74.4599 25.2382 73.6129 25.2382 72.5348V68.1455H26.7393Z" fill="#701892"/>
<path d="M34.9377 77.1551V70.2824C34.9377 69.9936 34.9184 69.6086 34.8992 69.1273C34.8799 68.646 34.8607 68.3188 34.8607 68.1455H36.2849C36.2849 68.2995 36.2849 68.5498 36.3041 68.8771C36.3233 69.2043 36.3233 69.4546 36.3233 69.6279H36.3618C36.5735 69.1466 36.9584 68.7423 37.4973 68.415C38.0362 68.0878 38.652 67.9145 39.3641 67.9145C40.7306 67.9145 41.6736 68.492 42.2125 69.6279C42.9245 68.492 43.8676 67.9145 45.0608 67.9145C46.2925 67.9145 47.1778 68.2418 47.6974 68.8771C48.217 69.5123 48.4865 70.4557 48.4865 71.6877V77.1551H46.9853V71.7648C46.9853 70.1284 46.254 69.3006 44.7914 69.3006C44.137 69.3006 43.5789 69.5509 43.1362 70.0321C42.6936 70.5134 42.4627 71.168 42.4627 71.9573V77.1551H40.9615V72.0535C40.9615 71.0717 40.8268 70.3594 40.5573 69.9359C40.2879 69.5123 39.8453 69.3006 39.2294 69.3006C38.2864 69.3006 37.5935 69.6086 37.1317 70.2246C36.6698 70.8407 36.4388 71.6877 36.4388 72.7658V77.1551H34.9377Z" fill="#701892"/>
<path d="M52.1626 70.2824L51.2195 69.3006C52.1241 68.3765 53.3173 67.9145 54.7992 67.9145C56.1079 67.9145 57.0701 68.2225 57.6668 68.8578C58.2634 69.4931 58.5713 70.4364 58.5713 71.7262V75.5958C58.5713 76.0963 58.6098 76.6161 58.706 77.1551H57.2626C57.2049 76.8856 57.1664 76.4428 57.1664 75.8075H57.1279C56.4543 76.8663 55.4535 77.3861 54.1641 77.3861C53.2018 77.3861 52.4127 77.1551 51.7776 76.6738C51.1425 76.2118 50.8154 75.5573 50.8154 74.7102C50.8154 74.2289 50.8924 73.8246 51.0656 73.4396C51.2388 73.0738 51.489 72.7851 51.8161 72.5733C52.1433 72.3423 52.4705 72.1498 52.8169 72.015C53.1633 71.8803 53.5675 71.7648 54.0486 71.707C54.5297 71.6492 54.9339 71.5915 55.2996 71.5722C55.646 71.553 56.0501 71.553 56.4928 71.553H57.0701V71.2835C57.0701 70.6482 56.8777 70.1476 56.4928 69.8011C56.0886 69.4738 55.5498 69.3006 54.8377 69.3006C53.7792 69.3006 52.8746 69.6279 52.1626 70.2824ZM57.0701 72.8236H55.569C53.4712 72.8236 52.432 73.4011 52.432 74.5562C52.432 75.5958 53.0863 76.1155 54.4143 76.1155C55.2418 76.1155 55.8769 75.846 56.3388 75.3262C56.8007 74.8065 57.0509 74.1712 57.0701 73.4011V72.8236Z" fill="#701892"/>
<path d="M60.3226 75.7113L61.5158 74.7872C62.1702 75.5958 62.94 76 63.8253 76C64.3449 76 64.8068 75.8845 65.211 75.6535C65.6151 75.4225 65.8076 75.076 65.8076 74.6139C65.8076 74.3829 65.7498 74.1904 65.6536 74.0172C65.5574 73.8439 65.4034 73.7091 65.1917 73.6129C64.98 73.5166 64.7876 73.4204 64.6143 73.3626C64.4219 73.3049 64.1717 73.2471 63.883 73.1893C63.3441 73.0546 62.94 72.9583 62.6321 72.8621C62.3626 72.7658 62.0354 72.6311 61.689 72.4385C61.3426 72.2653 61.0924 72.015 60.9385 71.707C60.7845 71.399 60.7075 71.014 60.7075 70.5712C60.7075 69.7434 61.0347 69.0888 61.7083 68.6075C62.3819 68.1455 63.1709 67.9145 64.0755 67.9145C65.5381 67.9145 66.5581 68.4535 67.1355 69.5509L65.8845 70.3787C65.4419 69.6664 64.8068 69.3006 63.9792 69.3006C63.5174 69.3006 63.1132 69.4161 62.7475 69.6279C62.3819 69.8396 62.2087 70.1476 62.2087 70.5519C62.2087 71.1295 62.9592 71.5722 64.4796 71.861C65.4227 72.0343 66.1347 72.323 66.6544 72.7081C67.174 73.1123 67.4242 73.7284 67.4242 74.5562C67.4242 75.4995 67.0778 76.2118 66.3849 76.6738C65.6728 77.1551 64.826 77.3861 63.8253 77.3861C63.0362 77.3861 62.3626 77.2514 61.8045 77.0011C61.2464 76.7508 60.746 76.3273 60.3226 75.7113Z" fill="#701892"/>
<path d="M77.1239 69.3391L75.9307 70.3979C75.3341 69.6664 74.5642 69.3006 73.6597 69.3006C72.6782 69.3006 71.9276 69.6086 71.408 70.2439C70.8884 70.8792 70.6189 71.6685 70.6189 72.6503C70.6189 73.5936 70.9076 74.4022 71.4657 75.0375C72.0238 75.6728 72.7552 76 73.6597 76C74.6412 76 75.411 75.6343 75.9499 74.8835L77.0662 75.9423C76.2386 76.9049 75.1031 77.3861 73.6597 77.3861C72.274 77.3861 71.1578 76.9434 70.2918 76.0578C69.4257 75.1915 69.0023 74.0557 69.0023 72.6503C69.0023 71.2835 69.445 70.1476 70.311 69.2621C71.177 68.3573 72.2933 67.9145 73.6597 67.9145C75.1031 67.9145 76.2578 68.3958 77.1239 69.3391Z" fill="#701892"/>
<path d="M79.6258 76.0578C78.7213 75.1915 78.2786 74.0557 78.2786 72.6503C78.2786 71.245 78.7213 70.1091 79.6258 69.2428C80.5496 68.3573 81.6851 67.9145 83.09 67.9145C84.4949 67.9145 85.6496 68.3573 86.5349 69.2428C87.4587 70.1091 87.9014 71.245 87.9014 72.6503C87.9014 74.0557 87.4587 75.1915 86.5349 76.0578C85.6496 76.9434 84.4949 77.3861 83.09 77.3861C81.6851 77.3861 80.5496 76.9434 79.6258 76.0578ZM80.7805 70.2439C80.1839 70.8792 79.8952 71.6877 79.8952 72.6503C79.8952 73.6129 80.1839 74.4214 80.7805 75.0375C81.3771 75.6728 82.147 76 83.09 76C84.033 76 84.8028 75.6728 85.3995 75.0375C85.9961 74.4214 86.2847 73.6129 86.2847 72.6503C86.2847 71.6877 85.9961 70.8792 85.3995 70.2439C84.8028 69.6086 84.033 69.3006 83.09 69.3006C82.147 69.3006 81.3771 69.6086 80.7805 70.2439Z" fill="#701892"/>
<path d="M95.1569 68.1454V69.416H92.5011V73.9208C92.5011 74.2096 92.5011 74.4406 92.5203 74.5946C92.5203 74.7486 92.5395 74.9219 92.5973 75.1337C92.6358 75.3454 92.7128 75.5187 92.7897 75.615C92.9052 75.7112 93.0399 75.8075 93.2131 75.8845C93.3671 75.9615 93.598 76 93.8482 76C94.3294 76 94.772 75.9037 95.1762 75.692L95.2339 77.0588C94.7528 77.2706 94.1562 77.3861 93.4826 77.3861C92.4818 77.3861 91.8275 77.1358 91.5003 76.6545C91.1731 76.1732 90.9999 75.4032 90.9999 74.3636V69.416H89.0369V68.1454H90.9999V65.585H92.5011V68.1454H95.1569Z" fill="#701892"/>
<path d="M97.832 70.2824L96.889 69.3006C97.7935 68.3765 98.9868 67.9145 100.469 67.9145C101.777 67.9145 102.74 68.2225 103.336 68.8578C103.933 69.4931 104.241 70.4364 104.241 71.7262V75.5958C104.241 76.0963 104.279 76.6161 104.375 77.1551H102.932C102.874 76.8856 102.836 76.4428 102.836 75.8075H102.797C102.124 76.8663 101.123 77.3861 99.8336 77.3861C98.8713 77.3861 98.0822 77.1551 97.4471 76.6738C96.812 76.2118 96.4848 75.5573 96.4848 74.7102C96.4848 74.2289 96.5618 73.8246 96.735 73.4396C96.9082 73.0738 97.1584 72.7851 97.4856 72.5733C97.8128 72.3423 98.14 72.1498 98.4864 72.015C98.8328 71.8803 99.237 71.7648 99.7181 71.707C100.199 71.6492 100.603 71.5915 100.969 71.5722C101.315 71.553 101.72 71.553 102.162 71.553H102.74V71.2835C102.74 70.6482 102.547 70.1476 102.162 69.8011C101.758 69.4738 101.219 69.3006 100.507 69.3006C99.4487 69.3006 98.5441 69.6279 97.832 70.2824ZM102.74 72.8236H101.238C99.1407 72.8236 98.1015 73.4011 98.1015 74.5562C98.1015 75.5958 98.7558 76.1155 100.084 76.1155C100.911 76.1155 101.546 75.846 102.008 75.3262C102.47 74.8065 102.72 74.1712 102.74 73.4011V72.8236Z" fill="#701892"/>
<path d="M111.342 75.7113L112.535 74.7872C113.19 75.5958 113.96 76 114.845 76C115.365 76 115.826 75.8845 116.231 75.6535C116.635 75.4225 116.827 75.076 116.827 74.6139C116.827 74.3829 116.769 74.1904 116.673 74.0172C116.577 73.8439 116.423 73.7091 116.211 73.6129C116 73.5166 115.807 73.4204 115.634 73.3626C115.442 73.3049 115.191 73.2471 114.903 73.1893C114.364 73.0546 113.96 72.9583 113.652 72.8621C113.382 72.7658 113.055 72.6311 112.709 72.4385C112.362 72.2653 112.112 72.015 111.958 71.707C111.804 71.399 111.727 71.014 111.727 70.5712C111.727 69.7434 112.054 69.0888 112.728 68.6075C113.402 68.1455 114.191 67.9145 115.095 67.9145C116.558 67.9145 117.578 68.4535 118.155 69.5509L116.904 70.3787C116.462 69.6664 115.826 69.3006 114.999 69.3006C114.537 69.3006 114.133 69.4161 113.767 69.6279C113.402 69.8396 113.228 70.1476 113.228 70.5519C113.228 71.1295 113.979 71.5722 115.499 71.861C116.442 72.0343 117.154 72.323 117.674 72.7081C118.194 73.1123 118.444 73.7284 118.444 74.5562C118.444 75.4995 118.097 76.2118 117.405 76.6738C116.692 77.1551 115.846 77.3861 114.845 77.3861C114.056 77.3861 113.382 77.2514 112.824 77.0011C112.266 76.7508 111.766 76.3273 111.342 75.7113Z" fill="#701892"/>
<path d="M121.369 70.2824L120.426 69.3006C121.331 68.3765 122.524 67.9145 124.006 67.9145C125.314 67.9145 126.277 68.2225 126.873 68.8578C127.47 69.4931 127.778 70.4364 127.778 71.7262V75.5958C127.778 76.0963 127.816 76.6161 127.913 77.1551H126.469C126.411 76.8856 126.373 76.4428 126.373 75.8075H126.334C125.661 76.8663 124.66 77.3861 123.371 77.3861C122.408 77.3861 121.619 77.1551 120.984 76.6738C120.349 76.2118 120.022 75.5573 120.022 74.7102C120.022 74.2289 120.099 73.8246 120.272 73.4396C120.445 73.0738 120.696 72.7851 121.023 72.5733C121.35 72.3423 121.677 72.1498 122.023 72.015C122.37 71.8803 122.774 71.7648 123.255 71.707C123.736 71.6492 124.14 71.5915 124.506 71.5722C124.853 71.553 125.257 71.553 125.699 71.553H126.277V71.2835C126.277 70.6482 126.084 70.1476 125.699 69.8011C125.295 69.4738 124.756 69.3006 124.044 69.3006C122.986 69.3006 122.081 69.6279 121.369 70.2824ZM126.277 72.8236H124.776C122.678 72.8236 121.639 73.4011 121.639 74.5562C121.639 75.5958 122.293 76.1155 123.621 76.1155C124.448 76.1155 125.084 75.846 125.545 75.3262C126.007 74.8065 126.257 74.1712 126.277 73.4011V72.8236Z" fill="#701892"/>
<path d="M130.53 77.1551V70.2824C130.53 69.9936 130.511 69.6086 130.491 69.1273C130.472 68.646 130.453 68.3188 130.453 68.1455H131.877C131.877 68.2995 131.877 68.5498 131.896 68.8771C131.916 69.2043 131.916 69.4546 131.916 69.6279H131.954C132.166 69.1466 132.551 68.7423 133.09 68.415C133.628 68.0878 134.244 67.9145 134.956 67.9145C136.092 67.9145 136.958 68.2418 137.535 68.8963C138.093 69.5701 138.382 70.4557 138.382 71.5915V77.1551H136.881V71.7455C136.881 70.9754 136.708 70.3787 136.361 69.9359C136.015 69.5123 135.495 69.3006 134.822 69.3006C133.879 69.3006 133.186 69.6086 132.724 70.2246C132.262 70.8407 132.031 71.6877 132.031 72.7658V77.1551H130.53Z" fill="#701892"/>
<path d="M142.058 70.2824L141.115 69.3006C142.02 68.3765 143.213 67.9145 144.695 67.9145C146.003 67.9145 146.966 68.2225 147.562 68.8578C148.159 69.4931 148.467 70.4364 148.467 71.7262V75.5958C148.467 76.0963 148.505 76.6161 148.601 77.1551H147.158C147.1 76.8856 147.062 76.4428 147.062 75.8075H147.023C146.35 76.8663 145.349 77.3861 144.06 77.3861C143.097 77.3861 142.308 77.1551 141.673 76.6738C141.038 76.2118 140.711 75.5573 140.711 74.7102C140.711 74.2289 140.788 73.8246 140.961 73.4396C141.134 73.0738 141.384 72.7851 141.712 72.5733C142.039 72.3423 142.366 72.1498 142.712 72.015C143.059 71.8803 143.463 71.7648 143.944 71.707C144.425 71.6492 144.829 71.5915 145.195 71.5722C145.541 71.553 145.946 71.553 146.388 71.553H146.966V71.2835C146.966 70.6482 146.773 70.1476 146.388 69.8011C145.984 69.4738 145.445 69.3006 144.733 69.3006C143.675 69.3006 142.77 69.6279 142.058 70.2824ZM146.966 72.8236H145.464C143.367 72.8236 142.327 73.4011 142.327 74.5562C142.327 75.5958 142.982 76.1155 144.31 76.1155C145.137 76.1155 145.772 75.846 146.234 75.3262C146.696 74.8065 146.946 74.1712 146.966 73.4011V72.8236Z" fill="#701892"/>
<path fill-rule="evenodd" clip-rule="evenodd" d="M129.269 24.2876V31.3057L98.0355 7.01495L66.8017 31.3057V24.2871L98.0355 0L129.269 24.2876Z" fill="#8DC63F"/>
</svg>
